<svg xmlns="http://www.w3.org/2000/svg" xmlns:xlink="http://www.w3.org/1999/xlink" xmlns:lucid="lucid" width="1540" height="1246.75"><g transform="translate(-200 -20)" lucid:page-tab-id="0_0"><path d="M908 40c17.67 0 32 17.9 32 40s-14.33 40-32 40h-96c-17.67 0-32-17.9-32-40s14.33-40 32-40z" stroke="#000" stroke-opacity="0" fill="#0c7cba"/><use xlink:href="#a" transform="matrix(1,0,0,1,785.0000000000005,45) translate(16.049999999999997 27.799999999999997)"/><use xlink:href="#b" transform="matrix(1,0,0,1,785.0000000000005,45) translate(58.95 27.799999999999997)"/><use xlink:href="#c" transform="matrix(1,0,0,1,785.0000000000005,45) translate(40.525 49.4)"/><path d="M380 268c0-4.42 3.58-8 8-8h144c4.42 0 8 3.58 8 8v104c0 4.42-3.58 8-8 8H388c-4.42 0-8-3.58-8-8z" stroke="#000" stroke-opacity="0" fill="#83bbe5"/><path d="M396 260v120m128-120v120" stroke="#000" stroke-opacity="0" fill="none"/><use xlink:href="#d" transform="matrix(1,0,0,1,405,265) translate(9.924999999999997 47.8)"/><use xlink:href="#e" transform="matrix(1,0,0,1,405,265) translate(52.825 47.8)"/><use xlink:href="#f" transform="matrix(1,0,0,1,405,265) translate(35.724999999999994 69.4)"/><path d="M460 258.38l-4.64-14.26h9.28z" fill-opacity="0"/><path d="M860 120.5v6.03" stroke="#000" stroke-opacity="0" fill="none"/><path d="M860 141.3l-4.64-14.27h9.28z" stroke="#000" stroke-opacity="0" fill-opacity="0"/><path d="M380 428c0-4.42 3.58-8 8-8h144c4.42 0 8 3.58 8 8v92c-26.72-16.7-43.36-16.7-53.44-16.7-16 0-37.28 16.7-53.28 16.7-9.92 0-26.72 0-53.28-16.7z" stroke="#000" stroke-opacity="0" fill="#b2d6ef"/><use xlink:href="#g" transform="matrix(1,0,0,1,385,425) translate(51.375 40.6)"/><path d="M460 380.5v23.12" stroke="#000" stroke-opacity="0" fill="none"/><path d="M460 418.38l-4.64-14.26h9.28z" stroke="#000" stroke-opacity="0" fill-opacity="0"/><path d="M380 568c0-4.42 3.58-8 8-8h144c4.42 0 8 3.58 8 8v104c0 4.42-3.58 8-8 8H388c-4.42 0-8-3.58-8-8z" stroke="#000" stroke-opacity="0" fill="#ffeca9"/><use xlink:href="#h" transform="matrix(1,0,0,1,392,572) translate(9.625 51.6)"/><use xlink:href="#i" transform="matrix(1,0,0,1,392,572) translate(70.47500000000001 51.6)"/><path d="M460 511.9v31.72" stroke="#000" stroke-opacity="0" fill="none"/><path d="M460 558.38l-4.64-14.26h9.28z" stroke="#000" stroke-opacity="0" fill-opacity="0"/><path d="M460 380.5v23.12" stroke="#333" fill="none"/><path d="M460.5 380.5h-1v-.5h1z" fill="#333"/><path d="M460 418.38l-4.64-14.26h9.28z" stroke="#333" fill="#333"/><path d="M460 511.9v31.72" stroke="#333" fill="none"/><path d="M460.5 511.92h-1v-.3l1-.42z" fill="#333"/><path d="M460 558.38l-4.64-14.26h9.28z" stroke="#333" fill="#333"/><path d="M453.6 724.8c3.53-2.65 9.27-2.65 12.8 0l67.2 50.4c3.53 2.65 3.53 6.95 0 9.6l-67.2 50.4c-3.53 2.65-9.27 2.65-12.8 0l-67.2-50.4c-3.53-2.65-3.53-6.95 0-9.6z" stroke="#000" stroke-opacity="0" fill="#83bbe5"/><use xlink:href="#j" transform="matrix(1,0,0,1,385,725) translate(41.525 47.8)"/><use xlink:href="#k" transform="matrix(1,0,0,1,385,725) translate(31.525 69.4)"/><path d="M460 680.5v26.03" stroke="#333" fill="none"/><path d="M460.5 680.5h-1v-.5h1z" fill="#333"/><path d="M460 721.3l-4.64-14.27h9.28z" stroke="#333" fill="#333"/><path d="M220 761.28c0-4.42 3.56-8.4 7.95-8.88l104.1-11.52c4.4-.5 7.95 2.7 7.95 7.12v64c0 4.42-3.58 8-8 8H228c-4.42 0-8-3.58-8-8z" stroke="#000" stroke-opacity="0" fill="#b2d6ef"/><use xlink:href="#l" transform="matrix(1,0,0,1,225,758.3333333333334) translate(25.049999999999997 21.299999999999997)"/><use xlink:href="#m" transform="matrix(1,0,0,1,225,758.3333333333334) translate(16.074999999999996 42.9)"/><path d="M383.36 780H340.5" stroke="#333" fill="none"/><path d="M383.84 780.5h-.5v-1h.54zM340.5 780.5h-.5v-1h.5z" fill="#333"/><path d="M380 888c0-4.42 3.58-8 8-8h144c4.42 0 8 3.58 8 8v84c0 4.42-3.58 8-8 8H388c-4.42 0-8-3.58-8-8z" stroke="#000" stroke-opacity="0" fill="#83bbe5"/><use xlink:href="#n" transform="matrix(1,0,0,1,392,892) translate(1.4249999999999972 30.799999999999997)"/><use xlink:href="#o" transform="matrix(1,0,0,1,392,892) translate(53.675 30.799999999999997)"/><use xlink:href="#p" transform="matrix(1,0,0,1,392,892) translate(9.099999999999994 52.4)"/><use xlink:href="#q" transform="matrix(1,0,0,1,392,892) translate(28.049999999999994 52.4)"/><use xlink:href="#r" transform="matrix(1,0,0,1,392,892) translate(91 52.4)"/><path d="M460 837.6v26.02" stroke="#333" fill="none"/><path d="M460.5 837.1v.5h-1v-.52z" fill="#333"/><path d="M460 878.38l-4.64-14.26h9.28z" stroke="#333" fill="#333"/><path d="M769.27 1034.48c1.14-4.27 5.65-7.73 10.06-7.73H882c4.42 0 7.08 3.46 5.94 7.73l-17.2 64.54c-1.15 4.27-5.66 7.73-10.07 7.73H758c-4.42 0-7.08-3.46-5.94-7.73z" stroke="#333" fill="#83bbe5"/><use xlink:href="#s" transform="matrix(1,0,0,1,755,1031.7500000000493) translate(21.525 38.6)"/><path d="M808.03 1002.63l3.2.42 3 1.24 2.6 1.98 2 2.6 1.25 3 .42 3.2v10.67h-1v-10.6l-.4-3-1.14-2.76-1.83-2.4-2.4-1.84-2.75-1.14-3-.4H672.44v-1zM460.9 994.1l1.14 2.76 1.83 2.4 2.4 1.83 2.75 1.13 3 .4h135.53v1H471.97l-3.2-.43-3-1.24-2.6-2-2-2.6-1.25-3-.42-3.2V980.5h1v10.6zM460.5 980.5h-1v-.5h1zM820.5 1026.25h-1v-.5h1z" fill="#333"/><use xlink:href="#t" transform="matrix(1,0,0,1,607.55,992.3250018115366) translate(0.005000000000002558 14.4)"/><path d="M868 1166.75c17.67 0 32 17.9 32 40s-14.33 40-32 40h-96c-17.67 0-32-17.9-32-40s14.33-40 32-40z" stroke="#000" stroke-opacity="0" fill="#0c7cba"/><use xlink:href="#u" transform="matrix(1,0,0,1,745,1171.7500000000493) translate(16.424999999999997 38.6)"/><use xlink:href="#v" transform="matrix(1,0,0,1,745,1171.7500000000493) translate(86.325 38.6)"/><path d="M820 1107.75v42.62" stroke="#333" fill="none"/><path d="M820.5 1107.76h-1v-.5h1z" fill="#333"/><path d="M820 1165.13l-4.64-14.26h9.28z" stroke="#333" fill="#333"/><path d="M1160 268c0-4.42 3.58-8 8-8h144c4.42 0 8 3.58 8 8v104c0 4.42-3.58 8-8 8h-144c-4.42 0-8-3.58-8-8z" stroke="#000" stroke-opacity="0" fill="#83bbe5"/><path d="M1176 260v120m128-120v120" stroke="#000" stroke-opacity="0" fill="none"/><use xlink:href="#w" transform="matrix(1,0,0,1,1185,265) translate(24.049999999999997 47.8)"/><use xlink:href="#x" transform="matrix(1,0,0,1,1185,265) translate(9.599999999999994 69.4)"/><use xlink:href="#f" transform="matrix(1,0,0,1,1185,265) translate(61.849999999999994 69.4)"/><path d="M1160 428c0-4.42 3.58-8 8-8h144c4.42 0 8 3.58 8 8v92c-26.72-16.7-43.36-16.7-53.44-16.7-16 0-37.28 16.7-53.28 16.7-9.92 0-26.72 0-53.28-16.7z" stroke="#000" stroke-opacity="0" fill="#b2d6ef"/><use xlink:href="#g" transform="matrix(1,0,0,1,1165,425) translate(51.375 40.6)"/><path d="M1240 380.5v23.12" stroke="#000" stroke-opacity="0" fill="none"/><path d="M1240 418.38l-4.64-14.26h9.28z" stroke="#000" stroke-opacity="0" fill-opacity="0"/><path d="M1240 511.9v38.47" stroke="#000" stroke-opacity="0" fill="none"/><path d="M1240 565.13l-4.64-14.26h9.28z" stroke="#000" stroke-opacity="0" fill-opacity="0"/><path d="M1240 380.5v23.12" stroke="#333" fill="none"/><path d="M1240.5 380.5h-1v-.5h1z" fill="#333"/><path d="M1240 418.38l-4.64-14.26h9.28z" stroke="#333" fill="#333"/><path d="M1240 511.9v38.47" stroke="#333" fill="none"/><path d="M1240.5 511.92h-1v-.3l1-.42z" fill="#333"/><path d="M1240 565.13l-4.64-14.26h9.28z" stroke="#333" fill="#333"/><path d="M1160 574.75c0-4.42 3.58-8 8-8h144c4.42 0 8 3.58 8 8v104c0 4.42-3.58 8-8 8h-144c-4.42 0-8-3.58-8-8z" stroke="#000" stroke-opacity="0" fill="#ffeca9"/><use xlink:href="#h" transform="matrix(1,0,0,1,1172,578.7500000000493) translate(9.625 51.6)"/><use xlink:href="#i" transform="matrix(1,0,0,1,1172,578.7500000000493) translate(70.47500000000001 51.6)"/><path d="M1240 606.25v-79.5 23.62M1240 606.24v.5" stroke="#000" stroke-opacity="0" fill="none"/><path d="M1240 565.13l-4.64-14.26h9.28z" stroke="#000" stroke-opacity="0" fill-opacity="0"/><path d="M1233.6 731.55c3.53-2.65 9.27-2.65 12.8 0l67.2 50.4c3.53 2.65 3.53 6.95 0 9.6l-67.2 50.4c-3.53 2.65-9.27 2.65-12.8 0l-67.2-50.4c-3.53-2.65-3.53-6.95 0-9.6z" stroke="#000" stroke-opacity="0" fill="#83bbe5"/><use xlink:href="#y" transform="matrix(1,0,0,1,1165,731.7500000000493) translate(16.549999999999997 58.6)"/><use xlink:href="#z" transform="matrix(1,0,0,1,1165,731.7500000000493) translate(59.5 58.6)"/><use xlink:href="#A" transform="matrix(1,0,0,1,1165,731.7500000000493) translate(89.5 58.6)"/><path d="M1240 687.25v26.03" stroke="#333" fill="none"/><path d="M1240.5 687.26h-1v-.5h1z" fill="#333"/><path d="M1240 728.05l-4.64-14.27h9.28z" stroke="#333" fill="#333"/><path d="M1400 748c0-4.42 3.58-8 8-8h144c4.42 0 8 3.58 8 8v84c0 4.42-3.58 8-8 8h-144c-4.42 0-8-3.58-8-8z" stroke="#000" stroke-opacity="0" fill="#83bbe5"/><use xlink:href="#B" transform="matrix(1,0,0,1,1412,752) translate(39.525 30.799999999999997)"/><use xlink:href="#C" transform="matrix(1,0,0,1,1412,752) translate(77.475 30.799999999999997)"/><use xlink:href="#D" transform="matrix(1,0,0,1,1412,752) translate(24.124999999999993 52.4)"/><path d="M1383.62 786.27v1h-14.07v-1zm-66.98.98v-1h29.96v1z" fill="#333"/><path d="M1316.65 787.25h-.53l.04-1h.5zM1398.38 786.77l-14.26 4.64v-9.27z" fill="#333"/><path d="M1400 786.77l-16.38 5.32v-10.65zm-15.38 3.95l12.14-3.95-12.14-3.95z" fill="#333"/><use xlink:href="#E" transform="matrix(1,0,0,1,1346.5952244802002,775.9600931677511) translate(0.005000000000000782 14.4)"/><path d="M1600 768.03c0-4.42 3.56-8.4 7.95-8.88l104.1-11.52c4.4-.5 7.95 2.7 7.95 7.12v64c0 4.42-3.58 8-8 8h-104c-4.42 0-8-3.58-8-8z" stroke="#000" stroke-opacity="0" fill="#b2d6ef"/><use xlink:href="#l" transform="matrix(1,0,0,1,1605,765.0833333333827) translate(25.049999999999997 21.299999999999997)"/><use xlink:href="#m" transform="matrix(1,0,0,1,1605,765.0833333333827) translate(16.074999999999996 42.9)"/><path d="M1599.5 787h-39" stroke="#333" fill="none"/><path d="M1600 787.5h-.5v-1h.5zM1560.5 787.5h-.5v-1h.5z" fill="#333"/><path d="M1400 888.5c0-4.42 3.58-8 8-8h144c4.42 0 8 3.58 8 8v84c0 4.42-3.58 8-8 8h-144c-4.42 0-8-3.58-8-8z" stroke="#000" stroke-opacity="0" fill="#83bbe5"/><use xlink:href="#n" transform="matrix(1,0,0,1,1412,892.4999963769762) translate(6.924999999999997 20)"/><use xlink:href="#F" transform="matrix(1,0,0,1,1412,892.4999963769762) translate(59.175 20)"/><use xlink:href="#G" transform="matrix(1,0,0,1,1412,892.4999963769762) translate(18.575000000000003 41.6)"/><use xlink:href="#H" transform="matrix(1,0,0,1,1412,892.4999963769762) translate(59.475 41.6)"/><use xlink:href="#r" transform="matrix(1,0,0,1,1412,892.4999963769762) translate(50.05 63.2)"/><path d="M1480 840.5v23.62" stroke="#333" fill="none"/><path d="M1480.5 840.5h-1v-.5h1z" fill="#333"/><path d="M1480 878.88l-4.64-14.26h9.28z" stroke="#333" fill="#333"/><path d="M1165.4 1003.88H826.56l-2.87.7-2.1 1.88-1.04 2.7-.04.74-1-.06.05-.88 1.18-3.1 2.47-2.18 3.23-.8h338.98zm315.1-12.47l-.42 3.22-1.24 3-2 2.6-2.6 2-3 1.23-3.2.42H1226.3v-1h241.67l3-.4 2.77-1.13 2.4-1.84 1.82-2.4 1.14-2.74.4-3.02V981h1zM1480.5 981h-1v-.5h1zM820 1024.63l-4.64-14.26h9.28z" fill="#333"/><path d="M820 1026.25l-5.32-16.38h10.64zm-3.95-15.38L820 1023l3.95-12.13z" fill="#333"/><g><use xlink:href="#I" transform="matrix(1,0,0,1,1165.414725824998,992.5750000000247) translate(0.004999999999999005 14.4)"/></g><path d="M940 744.75c0-4.42 3.58-8 8-8h144c4.42 0 8 3.58 8 8v84c0 4.42-3.58 8-8 8H948c-4.42 0-8-3.58-8-8z" stroke="#000" stroke-opacity="0" fill="#83bbe5"/><g><use xlink:href="#J" transform="matrix(1,0,0,1,952,748.7500000000493) translate(11.549999999999997 30.799999999999997)"/><use xlink:href="#K" transform="matrix(1,0,0,1,952,748.7500000000493) translate(82.5 30.799999999999997)"/><use xlink:href="#L" transform="matrix(1,0,0,1,952,748.7500000000493) translate(43.55 52.4)"/></g><path d="M1117.25 787.25h-.87v-1h.87zm46.1 0h-16.75v-1h16.76z" fill="#333"/><path d="M1163.84 787.25h-.5v-1h.54zM1115.88 791.4l-14.26-4.65 14.26-4.64z" fill="#333"/><path d="M1116.38 792.07l-16.38-5.32 16.38-5.32zm-13.14-5.32l12.14 3.95v-7.9z" fill="#333"/><g><use xlink:href="#M" transform="matrix(1,0,0,1,1117.2547755198,775.9500000000494) translate(0.005000000000000782 14.4)"/></g><path d="M853.6 144.8c3.53-2.65 9.27-2.65 12.8 0l67.2 50.4c3.53 2.65 3.53 6.95 0 9.6l-67.2 50.4c-3.53 2.65-9.27 2.65-12.8 0l-67.2-50.4c-3.53-2.65-3.53-6.95 0-9.6z" stroke="#000" stroke-opacity="0" fill="#83bbe5"/><g><use xlink:href="#N" transform="matrix(1,0,0,1,785,145) translate(17.424999999999997 58.6)"/><use xlink:href="#O" transform="matrix(1,0,0,1,785,145) translate(69.675 58.6)"/></g><path d="M577.25 200.5H472.03l-3 .4-2.77 1.14-2.4 1.83-1.82 2.4-1.14 2.75-.4 3v31.6h-1v-31.65l.42-3.2 1.24-3 2-2.6 2.6-2 3-1.25 3.2-.42h105.3zm206.1 0H606.6v-1h176.76z" fill="#333"/><path d="M783.84 200.5h-.5v-1h.54zM460 258.38l-4.64-14.26h9.28z" fill="#333"/><path d="M460 260l-5.32-16.38h10.64zm-3.95-15.38l3.95 12.14 3.95-12.14z" fill="#333"/><g><use xlink:href="#M" transform="matrix(1,0,0,1,577.2547755198,189.2) translate(0.005000000000000782 14.4)"/></g><path d="M1231.24 199.92l3 1.24 2.6 2 2 2.6 1.24 3 .42 3.2v31.66h-1v-31.6l-.4-3-1.14-2.76-1.83-2.4-2.4-1.82-2.75-1.14-3-.4h-98.43v-1h98.48zm-294.6.58v-1h169.96v1z" fill="#333"/><path d="M936.65 200.5h-.53l.04-1h.5zM1240 258.38l-4.64-14.26h9.28z" fill="#333"/><path d="M1240 260l-5.32-16.38h10.64zm-3.95-15.38l3.95 12.14 3.95-12.14z" fill="#333"/><g><use xlink:href="#E" transform="matrix(1,0,0,1,1106.5952244802002,189.2) translate(0.005000000000000782 14.4)"/></g><path d="M860 120.5v21.9" stroke="#333" fill="none"/><path d="M860.5 120.5h-1v-.5h1z" fill="#333"/><path d="M860 142.9" stroke="#333" fill="none"/><defs><path d="M62-99C39-31 123 0 170-40s38-139 58-208h34C234-144 253 4 115 4 49 4 18-43 31-112l26-136h34" id="P"/><path d="M55-144c13 50 104 24 104 88C159 21 15 23 1-39l26-10c6 40 102 42 102-4-13-50-104-23-104-87 0-71 143-71 148-8l-29 4c-5-35-85-37-89 0" id="Q"/><path d="M111-194c62-3 86 47 72 106H45c-7 38 6 69 45 68 27-1 43-14 53-32l24 11C152-15 129 4 87 4 38 3 12-23 12-71c0-70 32-119 99-123zm44 81c14-66-71-72-95-28-4 8-8 17-11 28h106" id="R"/><path d="M66-151c12-25 30-51 66-40l-6 26C45-176 58-65 38 0H6l36-190h30" id="S"/><g id="a"><use transform="matrix(0.05,0,0,0.05,0,0)" xlink:href="#P"/><use transform="matrix(0.05,0,0,0.05,12.950000000000001,0)" xlink:href="#Q"/><use transform="matrix(0.05,0,0,0.05,21.950000000000003,0)" xlink:href="#R"/><use transform="matrix(0.05,0,0,0.05,31.950000000000003,0)" xlink:href="#S"/></g><path d="M165-48c-4 18 1 34 23 27l-3 20c-29 8-62 0-52-35h-2C116-14 99 4 63 4 30 4 8-16 8-49c0-68 71-67 138-67 10-26 0-56-31-54-26 1-42 9-47 31l-32-5c8-67 160-71 144 15-5 28-9 54-15 81zM42-50c3 52 80 24 89-6 7-12 7-24 11-38-47 1-103-4-100 44" id="T"/><path d="M44-68c0 29 11 47 38 47 30 0 42-19 51-41l28 9C148-21 126 4 82 4 31 4 10-29 12-85c3-77 74-140 146-93 12 8 15 23 18 40l-31 5c-1-22-13-36-36-36-52 0-65 49-65 101" id="U"/><g id="b"><use transform="matrix(0.05,0,0,0.05,0,0)" xlink:href="#T"/><use transform="matrix(0.05,0,0,0.05,10,0)" xlink:href="#U"/><use transform="matrix(0.05,0,0,0.05,19,0)" xlink:href="#U"/><use transform="matrix(0.05,0,0,0.05,28,0)" xlink:href="#R"/><use transform="matrix(0.05,0,0,0.05,38,0)" xlink:href="#Q"/><use transform="matrix(0.05,0,0,0.05,47,0)" xlink:href="#Q"/><use transform="matrix(0.05,0,0,0.05,56,0)" xlink:href="#R"/><use transform="matrix(0.05,0,0,0.05,66,0)" xlink:href="#Q"/></g><path d="M190 0H-7l5-25 185-195H49l5-28h176l-5 25L40-27h155" id="V"/><path d="M67-158c22-48 132-52 116 29L158 0h-32l25-140c3-38-53-32-70-12C52-117 51-52 38 0H6l36-190h30" id="W"/><path d="M133-28C103 26-5 8 13-77c13-62 24-115 90-117 29-1 46 15 56 35l19-102h32L160 0h-30zM45-64c-2 27 10 43 35 43 54-1 69-50 69-103 0-29-15-46-42-46-53-1-58 58-62 106" id="X"/><path d="M127 0L80-88 50-66 37 0H6l51-261h31L57-100l99-90h39l-93 82L161 0h-34" id="Y"/><g id="c"><use transform="matrix(0.05,0,0,0.05,0,0)" xlink:href="#V"/><use transform="matrix(0.05,0,0,0.05,10.950000000000001,0)" xlink:href="#R"/><use transform="matrix(0.05,0,0,0.05,20.950000000000003,0)" xlink:href="#W"/><use transform="matrix(0.05,0,0,0.05,30.950000000000003,0)" xlink:href="#X"/><use transform="matrix(0.05,0,0,0.05,40.95,0)" xlink:href="#R"/><use transform="matrix(0.05,0,0,0.05,50.95,0)" xlink:href="#Q"/><use transform="matrix(0.05,0,0,0.05,59.95,0)" xlink:href="#Y"/></g><path d="M232-93c-1 65-40 97-104 97C67 4 28-28 28-90v-158h33c8 89-33 224 67 224 102 0 64-133 71-224h33v155" id="Z"/><path d="M135-143c-3-34-86-38-87 0 15 53 115 12 119 90S17 21 10-45l28-5c4 36 97 45 98 0-10-56-113-15-118-90-4-57 82-63 122-42 12 7 21 19 24 35" id="aa"/><path d="M100-194c63 0 86 42 84 106H49c0 40 14 67 53 68 26 1 43-12 49-29l28 8c-11 28-37 45-77 45C44 4 14-33 15-96c1-61 26-98 85-98zm52 81c6-60-76-77-97-28-3 7-6 17-6 28h103" id="ab"/><path d="M114-163C36-179 61-72 57 0H25l-1-190h30c1 12-1 29 2 39 6-27 23-49 58-41v29" id="ac"/><g id="d"><use transform="matrix(0.05,0,0,0.05,0,0)" xlink:href="#Z"/><use transform="matrix(0.05,0,0,0.05,12.950000000000001,0)" xlink:href="#aa"/><use transform="matrix(0.05,0,0,0.05,21.950000000000003,0)" xlink:href="#ab"/><use transform="matrix(0.05,0,0,0.05,31.950000000000003,0)" xlink:href="#ac"/></g><path d="M127-220V0H93v-220H8v-28h204v28h-85" id="ad"/><path d="M24-231v-30h32v30H24zM24 0v-190h32V0H24" id="ae"/><path d="M96-169c-40 0-48 33-48 73s9 75 48 75c24 0 41-14 43-38l32 2c-6 37-31 61-74 61-59 0-76-41-82-99-10-93 101-131 147-64 4 7 5 14 7 22l-32 3c-4-21-16-35-41-35" id="af"/><path d="M143 0L79-87 56-68V0H24v-261h32v163l83-92h37l-77 82L181 0h-38" id="ag"/><path d="M59-47c-2 24 18 29 38 22v24C64 9 27 4 27-40v-127H5v-23h24l9-43h21v43h35v23H59v120" id="ah"/><g id="e"><use transform="matrix(0.05,0,0,0.05,0,0)" xlink:href="#ad"/><use transform="matrix(0.05,0,0,0.05,10.3,0)" xlink:href="#ae"/><use transform="matrix(0.05,0,0,0.05,14.25,0)" xlink:href="#af"/><use transform="matrix(0.05,0,0,0.05,23.25,0)" xlink:href="#ag"/><use transform="matrix(0.05,0,0,0.05,32.25,0)" xlink:href="#ab"/><use transform="matrix(0.05,0,0,0.05,42.25,0)" xlink:href="#ah"/></g><path d="M137 0h-34L2-248h35l83 218 83-218h36" id="ai"/><path d="M206 0h-36l-40-164L89 0H53L-1-190h32L70-26l43-164h34l41 164 42-164h31" id="aj"/><g id="f"><use transform="matrix(0.05,0,0,0.05,0,0)" xlink:href="#ai"/><use transform="matrix(0.05,0,0,0.05,11.65,0)" xlink:href="#ae"/><use transform="matrix(0.05,0,0,0.05,15.600000000000001,0)" xlink:href="#ab"/><use transform="matrix(0.05,0,0,0.05,25.6,0)" xlink:href="#aj"/></g><g id="g"><use transform="matrix(0.05,0,0,0.05,0,0)" xlink:href="#ad"/><use transform="matrix(0.05,0,0,0.05,10.3,0)" xlink:href="#ae"/><use transform="matrix(0.05,0,0,0.05,14.25,0)" xlink:href="#af"/><use transform="matrix(0.05,0,0,0.05,23.25,0)" xlink:href="#ag"/><use transform="matrix(0.05,0,0,0.05,32.25,0)" xlink:href="#ab"/><use transform="matrix(0.05,0,0,0.05,42.25,0)" xlink:href="#ah"/></g><path d="M185-189c-5-48-123-54-124 2 14 75 158 14 163 119 3 78-121 87-175 55-17-10-28-26-33-46l33-7c5 56 141 63 141-1 0-78-155-14-162-118-5-82 145-84 179-34 5 7 8 16 11 25" id="ak"/><path d="M141-36C126-15 110 5 73 4 37 3 15-17 15-53c-1-64 63-63 125-63 3-35-9-54-41-54-24 1-41 7-42 31l-33-3c5-37 33-52 76-52 45 0 72 20 72 64v82c-1 20 7 32 28 27v20c-31 9-61-2-59-35zM48-53c0 20 12 33 32 33 41-3 63-29 60-74-43 2-92-5-92 41" id="al"/><path d="M210-169c-67 3-38 105-44 169h-31v-121c0-29-5-50-35-48C34-165 62-65 56 0H25l-1-190h30c1 10-1 24 2 32 10-44 99-50 107 0 11-21 27-35 58-36 85-2 47 119 55 194h-31v-121c0-29-5-49-35-48" id="am"/><g id="h"><use transform="matrix(0.05,0,0,0.05,0,0)" xlink:href="#ak"/><use transform="matrix(0.05,0,0,0.05,12,0)" xlink:href="#aj"/><use transform="matrix(0.05,0,0,0.05,24.950000000000003,0)" xlink:href="#al"/><use transform="matrix(0.05,0,0,0.05,34.95,0)" xlink:href="#ac"/><use transform="matrix(0.05,0,0,0.05,40.900000000000006,0)" xlink:href="#am"/></g><path d="M266 0h-40l-56-210L115 0H75L2-248h35L96-30l15-64 43-154h32l59 218 59-218h35" id="an"/><path d="M85-194c31 0 48 13 60 33l-1-100h32l1 261h-30c-2-10 0-23-3-31C134-8 116 4 85 4 32 4 16-35 15-94c0-66 23-100 70-100zm9 24c-40 0-46 34-46 75 0 40 6 74 45 74 42 0 51-32 51-76 0-42-9-74-50-73" id="ao"/><path d="M177-190C167-65 218 103 67 71c-23-6-38-20-44-43l32-5c15 47 100 32 89-28v-30C133-14 115 1 83 1 29 1 15-40 15-95c0-56 16-97 71-98 29-1 48 16 59 35 1-10 0-23 2-32h30zM94-22c36 0 50-32 50-73 0-42-14-75-50-75-39 0-46 34-46 75s6 73 46 73" id="ap"/><g id="i"><use transform="matrix(0.05,0,0,0.05,0,0)" xlink:href="#an"/><use transform="matrix(0.05,0,0,0.05,16.95,0)" xlink:href="#ae"/><use transform="matrix(0.05,0,0,0.05,20.9,0)" xlink:href="#ao"/><use transform="matrix(0.05,0,0,0.05,30.899999999999995,0)" xlink:href="#ap"/><use transform="matrix(0.05,0,0,0.05,40.9,0)" xlink:href="#ab"/><use transform="matrix(0.05,0,0,0.05,50.9,0)" xlink:href="#ah"/></g><path d="M233-177c-1 41-23 64-60 70L243 0h-38l-65-103H63V0H30v-248c88 3 205-21 203 71zM63-129c60-2 137 13 137-47 0-61-80-42-137-45v92" id="aq"/><path d="M145-31C134-9 116 4 85 4 32 4 16-35 15-94c0-59 17-99 70-100 32-1 48 14 60 33 0-11-1-24 2-32h30l-1 268h-32zM93-21c41 0 51-33 51-76s-8-73-50-73c-40 0-46 35-46 75s5 74 45 74" id="ar"/><path d="M84 4C-5 8 30-112 23-190h32v120c0 31 7 50 39 49 72-2 45-101 50-169h31l1 190h-30c-1-10 1-25-2-33-11 22-28 36-60 37" id="as"/><g id="j"><use transform="matrix(0.05,0,0,0.05,0,0)" xlink:href="#aq"/><use transform="matrix(0.05,0,0,0.05,12.950000000000001,0)" xlink:href="#ab"/><use transform="matrix(0.05,0,0,0.05,22.950000000000003,0)" xlink:href="#ar"/><use transform="matrix(0.05,0,0,0.05,32.95,0)" xlink:href="#as"/><use transform="matrix(0.05,0,0,0.05,42.95,0)" xlink:href="#ab"/><use transform="matrix(0.05,0,0,0.05,52.95,0)" xlink:href="#aa"/><use transform="matrix(0.05,0,0,0.05,61.95,0)" xlink:href="#ah"/></g><path d="M205 0l-28-72H64L36 0H1l101-248h38L239 0h-34zm-38-99l-47-123c-12 45-31 82-46 123h93" id="at"/><path d="M117-194c89-4 53 116 60 194h-32v-121c0-31-8-49-39-48C34-167 62-67 57 0H25l-1-190h30c1 10-1 24 2 32 11-22 29-35 61-36" id="au"/><g id="k"><use transform="matrix(0.05,0,0,0.05,0,0)" xlink:href="#at"/><use transform="matrix(0.05,0,0,0.05,12,0)" xlink:href="#aa"/><use transform="matrix(0.05,0,0,0.05,21,0)" xlink:href="#aa"/><use transform="matrix(0.05,0,0,0.05,30,0)" xlink:href="#ae"/><use transform="matrix(0.05,0,0,0.05,33.95,0)" xlink:href="#aa"/><use transform="matrix(0.05,0,0,0.05,42.95,0)" xlink:href="#ah"/><use transform="matrix(0.05,0,0,0.05,47.95,0)" xlink:href="#al"/><use transform="matrix(0.05,0,0,0.05,57.95,0)" xlink:href="#au"/><use transform="matrix(0.05,0,0,0.05,67.95,0)" xlink:href="#af"/><use transform="matrix(0.05,0,0,0.05,76.95,0)" xlink:href="#ab"/></g><path d="M33 0v-248h34V0H33" id="av"/><path d="M24 0v-261h32V0H24" id="aw"/><g id="l"><use transform="matrix(0.05,0,0,0.05,0,0)" xlink:href="#av"/><use transform="matrix(0.05,0,0,0.05,5,0)" xlink:href="#au"/><use transform="matrix(0.05,0,0,0.05,15,0)" xlink:href="#ah"/><use transform="matrix(0.05,0,0,0.05,20,0)" xlink:href="#ab"/><use transform="matrix(0.05,0,0,0.05,30,0)" xlink:href="#ac"/><use transform="matrix(0.05,0,0,0.05,35.95,0)" xlink:href="#au"/><use transform="matrix(0.05,0,0,0.05,45.95,0)" xlink:href="#al"/><use transform="matrix(0.05,0,0,0.05,55.95,0)" xlink:href="#aw"/></g><path d="M212-179c-10-28-35-45-73-45-59 0-87 40-87 99 0 60 29 101 89 101 43 0 62-24 78-52l27 14C228-24 195 4 139 4 59 4 22-46 18-125c-6-104 99-153 187-111 19 9 31 26 39 46" id="ax"/><path d="M100-194c62-1 85 37 85 99 1 63-27 99-86 99S16-35 15-95c0-66 28-99 85-99zM99-20c44 1 53-31 53-75 0-43-8-75-51-75s-53 32-53 75 10 74 51 75" id="ay"/><g id="m"><use transform="matrix(0.05,0,0,0.05,0,0)" xlink:href="#ax"/><use transform="matrix(0.05,0,0,0.05,12.950000000000001,0)" xlink:href="#ay"/><use transform="matrix(0.05,0,0,0.05,22.950000000000003,0)" xlink:href="#am"/><use transform="matrix(0.05,0,0,0.05,37.900000000000006,0)" xlink:href="#am"/><use transform="matrix(0.05,0,0,0.05,52.85,0)" xlink:href="#ab"/><use transform="matrix(0.05,0,0,0.05,62.85,0)" xlink:href="#au"/><use transform="matrix(0.05,0,0,0.05,72.85000000000001,0)" xlink:href="#ah"/></g><g id="n"><use transform="matrix(0.05,0,0,0.05,0,0)" xlink:href="#ad"/><use transform="matrix(0.05,0,0,0.05,10.3,0)" xlink:href="#ae"/><use transform="matrix(0.05,0,0,0.05,14.25,0)" xlink:href="#af"/><use transform="matrix(0.05,0,0,0.05,23.25,0)" xlink:href="#ag"/><use transform="matrix(0.05,0,0,0.05,32.25,0)" xlink:href="#ab"/><use transform="matrix(0.05,0,0,0.05,42.25,0)" xlink:href="#ah"/></g><path d="M115-194c53 0 69 39 70 98 0 66-23 100-70 100C84 3 66-7 56-30L54 0H23l1-261h32v101c10-23 28-34 59-34zm-8 174c40 0 45-34 45-75 0-40-5-75-45-74-42 0-51 32-51 76 0 43 10 73 51 73" id="az"/><g id="o"><use transform="matrix(0.05,0,0,0.05,0,0)" xlink:href="#ak"/><use transform="matrix(0.05,0,0,0.05,12,0)" xlink:href="#as"/><use transform="matrix(0.05,0,0,0.05,22,0)" xlink:href="#az"/><use transform="matrix(0.05,0,0,0.05,32,0)" xlink:href="#am"/><use transform="matrix(0.05,0,0,0.05,46.95,0)" xlink:href="#ae"/><use transform="matrix(0.05,0,0,0.05,50.900000000000006,0)" xlink:href="#ah"/><use transform="matrix(0.05,0,0,0.05,55.900000000000006,0)" xlink:href="#ah"/><use transform="matrix(0.05,0,0,0.05,60.900000000000006,0)" xlink:href="#ab"/><use transform="matrix(0.05,0,0,0.05,70.9,0)" xlink:href="#ao"/></g><g id="p"><use transform="matrix(0.05,0,0,0.05,0,0)" xlink:href="#ae"/><use transform="matrix(0.05,0,0,0.05,3.95,0)" xlink:href="#au"/></g><g id="q"><use transform="matrix(0.05,0,0,0.05,0,0)" xlink:href="#af"/><use transform="matrix(0.05,0,0,0.05,9,0)" xlink:href="#as"/><use transform="matrix(0.05,0,0,0.05,19,0)" xlink:href="#aa"/><use transform="matrix(0.05,0,0,0.05,28,0)" xlink:href="#ah"/><use transform="matrix(0.05,0,0,0.05,33,0)" xlink:href="#ay"/><use transform="matrix(0.05,0,0,0.05,43,0)" xlink:href="#am"/></g><path d="M108 0H70L1-190h34L89-25l56-165h34" id="aA"/><g id="r"><use transform="matrix(0.05,0,0,0.05,0,0)" xlink:href="#aA"/><use transform="matrix(0.05,0,0,0.05,9,0)" xlink:href="#ae"/><use transform="matrix(0.05,0,0,0.05,12.949999999999998,0)" xlink:href="#ab"/><use transform="matrix(0.05,0,0,0.05,22.95,0)" xlink:href="#aj"/></g><g id="s"><use transform="matrix(0.05,0,0,0.05,0,0)" xlink:href="#at"/><use transform="matrix(0.05,0,0,0.05,12,0)" xlink:href="#aa"/><use transform="matrix(0.05,0,0,0.05,21,0)" xlink:href="#aa"/><use transform="matrix(0.05,0,0,0.05,30,0)" xlink:href="#ae"/><use transform="matrix(0.05,0,0,0.05,33.95,0)" xlink:href="#aa"/><use transform="matrix(0.05,0,0,0.05,42.95,0)" xlink:href="#ah"/><use transform="matrix(0.05,0,0,0.05,47.95,0)" xlink:href="#al"/><use transform="matrix(0.05,0,0,0.05,57.95,0)" xlink:href="#au"/><use transform="matrix(0.05,0,0,0.05,67.95,0)" xlink:href="#af"/><use transform="matrix(0.05,0,0,0.05,76.95,0)" xlink:href="#ab"/></g><path fill="#333" d="M233-177c-1 41-23 64-60 70L243 0h-38l-65-103H63V0H30v-248c88 3 205-21 203 71zM63-129c60-2 137 13 137-47 0-61-80-42-137-45v92" id="aB"/><path fill="#333" d="M100-194c63 0 86 42 84 106H49c0 40 14 67 53 68 26 1 43-12 49-29l28 8c-11 28-37 45-77 45C44 4 14-33 15-96c1-61 26-98 85-98zm52 81c6-60-76-77-97-28-3 7-6 17-6 28h103" id="aC"/><path fill="#333" d="M96-169c-40 0-48 33-48 73s9 75 48 75c24 0 41-14 43-38l32 2c-6 37-31 61-74 61-59 0-76-41-82-99-10-93 101-131 147-64 4 7 5 14 7 22l-32 3c-4-21-16-35-41-35" id="aD"/><path fill="#333" d="M24-231v-30h32v30H24zM24 0v-190h32V0H24" id="aE"/><path fill="#333" d="M108 0H70L1-190h34L89-25l56-165h34" id="aF"/><g id="t"><use transform="matrix(0.05,0,0,0.05,0,0)" xlink:href="#aB"/><use transform="matrix(0.05,0,0,0.05,12.950000000000001,0)" xlink:href="#aC"/><use transform="matrix(0.05,0,0,0.05,22.950000000000003,0)" xlink:href="#aD"/><use transform="matrix(0.05,0,0,0.05,31.950000000000003,0)" xlink:href="#aE"/><use transform="matrix(0.05,0,0,0.05,35.900000000000006,0)" xlink:href="#aC"/><use transform="matrix(0.05,0,0,0.05,45.900000000000006,0)" xlink:href="#aF"/><use transform="matrix(0.05,0,0,0.05,54.900000000000006,0)" xlink:href="#aC"/></g><path fill="#333" d="M135-143c-3-34-86-38-87 0 15 53 115 12 119 90S17 21 10-45l28-5c4 36 97 45 98 0-10-56-113-15-118-90-4-57 82-63 122-42 12 7 21 19 24 35" id="aG"/><path fill="#333" d="M100-194c62-1 85 37 85 99 1 63-27 99-86 99S16-35 15-95c0-66 28-99 85-99zM99-20c44 1 53-31 53-75 0-43-8-75-51-75s-53 32-53 75 10 74 51 75" id="aH"/><path fill="#333" d="M24 0v-261h32V0H24" id="aI"/><g id="u"><use transform="matrix(0.05,0,0,0.05,0,0)" xlink:href="#aB"/><use transform="matrix(0.05,0,0,0.05,12.950000000000001,0)" xlink:href="#aC"/><use transform="matrix(0.05,0,0,0.05,22.950000000000003,0)" xlink:href="#aG"/><use transform="matrix(0.05,0,0,0.05,31.950000000000003,0)" xlink:href="#aH"/><use transform="matrix(0.05,0,0,0.05,41.95,0)" xlink:href="#aI"/><use transform="matrix(0.05,0,0,0.05,45.900000000000006,0)" xlink:href="#aF"/><use transform="matrix(0.05,0,0,0.05,54.900000000000006,0)" xlink:href="#aC"/></g><path fill="#333" d="M127-220V0H93v-220H8v-28h204v28h-85" id="aJ"/><path fill="#333" d="M143 0L79-87 56-68V0H24v-261h32v163l83-92h37l-77 82L181 0h-38" id="aK"/><path fill="#333" d="M59-47c-2 24 18 29 38 22v24C64 9 27 4 27-40v-127H5v-23h24l9-43h21v43h35v23H59v120" id="aL"/><g id="v"><use transform="matrix(0.05,0,0,0.05,0,0)" xlink:href="#aJ"/><use transform="matrix(0.05,0,0,0.05,10.3,0)" xlink:href="#aE"/><use transform="matrix(0.05,0,0,0.05,14.25,0)" xlink:href="#aD"/><use transform="matrix(0.05,0,0,0.05,23.25,0)" xlink:href="#aK"/><use transform="matrix(0.05,0,0,0.05,32.25,0)" xlink:href="#aC"/><use transform="matrix(0.05,0,0,0.05,42.25,0)" xlink:href="#aL"/></g><g id="w"><use transform="matrix(0.05,0,0,0.05,0,0)" xlink:href="#ax"/><use transform="matrix(0.05,0,0,0.05,12.950000000000001,0)" xlink:href="#as"/><use transform="matrix(0.05,0,0,0.05,22.950000000000003,0)" xlink:href="#aa"/><use transform="matrix(0.05,0,0,0.05,31.950000000000003,0)" xlink:href="#ah"/><use transform="matrix(0.05,0,0,0.05,36.95,0)" xlink:href="#ay"/><use transform="matrix(0.05,0,0,0.05,46.95,0)" xlink:href="#am"/></g><g id="x"><use transform="matrix(0.05,0,0,0.05,0,0)" xlink:href="#ad"/><use transform="matrix(0.05,0,0,0.05,10.3,0)" xlink:href="#ae"/><use transform="matrix(0.05,0,0,0.05,14.25,0)" xlink:href="#af"/><use transform="matrix(0.05,0,0,0.05,23.25,0)" xlink:href="#ag"/><use transform="matrix(0.05,0,0,0.05,32.25,0)" xlink:href="#ab"/><use transform="matrix(0.05,0,0,0.05,42.25,0)" xlink:href="#ah"/></g><g id="y"><use transform="matrix(0.05,0,0,0.05,0,0)" xlink:href="#ad"/><use transform="matrix(0.05,0,0,0.05,8.950000000000001,0)" xlink:href="#al"/><use transform="matrix(0.05,0,0,0.05,18.950000000000003,0)" xlink:href="#ag"/><use transform="matrix(0.05,0,0,0.05,27.950000000000003,0)" xlink:href="#ab"/></g><path d="M106-169C34-169 62-67 57 0H25v-261h32l-1 103c12-21 28-36 61-36 89 0 53 116 60 194h-32v-121c2-32-8-49-39-48" id="aM"/><g id="z"><use transform="matrix(0.05,0,0,0.05,0,0)" xlink:href="#ah"/><use transform="matrix(0.05,0,0,0.05,5,0)" xlink:href="#aM"/><use transform="matrix(0.05,0,0,0.05,15,0)" xlink:href="#ab"/></g><path d="M103-251c84 0 111 97 45 133-19 10-37 24-39 52H78c0-63 77-55 77-114 0-30-21-42-52-43-32 0-53 17-56 46l-32-2c7-45 34-72 88-72zM77 0v-35h34V0H77" id="aN"/><g id="A"><use transform="matrix(0.05,0,0,0.05,0,0)" xlink:href="#aw"/><use transform="matrix(0.05,0,0,0.05,3.95,0)" xlink:href="#ab"/><use transform="matrix(0.05,0,0,0.05,13.949999999999998,0)" xlink:href="#al"/><use transform="matrix(0.05,0,0,0.05,23.95,0)" xlink:href="#ao"/><use transform="matrix(0.05,0,0,0.05,33.95,0)" xlink:href="#aN"/></g><path fill="#333" d="M153-248C145-148 188 4 80 4 36 3 13-21 6-62l32-5c4 25 16 42 43 43 27 0 39-20 39-49v-147H72v-28h81" id="aO"/><path fill="#333" d="M117-194c89-4 53 116 60 194h-32v-121c0-31-8-49-39-48C34-167 62-67 57 0H25l-1-190h30c1 10-1 24 2 32 11-22 29-35 61-36" id="aP"/><g id="B"><use transform="matrix(0.05,0,0,0.05,0,0)" xlink:href="#aO"/><use transform="matrix(0.05,0,0,0.05,9,0)" xlink:href="#aH"/><use transform="matrix(0.05,0,0,0.05,19,0)" xlink:href="#aE"/><use transform="matrix(0.05,0,0,0.05,22.95,0)" xlink:href="#aP"/></g><path fill="#333" d="M141-36C126-15 110 5 73 4 37 3 15-17 15-53c-1-64 63-63 125-63 3-35-9-54-41-54-24 1-41 7-42 31l-33-3c5-37 33-52 76-52 45 0 72 20 72 64v82c-1 20 7 32 28 27v20c-31 9-61-2-59-35zM48-53c0 20 12 33 32 33 41-3 63-29 60-74-43 2-92-5-92 41" id="aQ"/><g id="C"><use transform="matrix(0.05,0,0,0.05,0,0)" xlink:href="#aQ"/><use transform="matrix(0.05,0,0,0.05,10,0)" xlink:href="#aG"/></g><path fill="#333" d="M212-179c-10-28-35-45-73-45-59 0-87 40-87 99 0 60 29 101 89 101 43 0 62-24 78-52l27 14C228-24 195 4 139 4 59 4 22-46 18-125c-6-104 99-153 187-111 19 9 31 26 39 46" id="aR"/><path fill="#333" d="M115-194c53 0 69 39 70 98 0 66-23 100-70 100C84 3 66-7 56-30L54 0H23l1-261h32v101c10-23 28-34 59-34zm-8 174c40 0 45-34 45-75 0-40-5-75-45-74-42 0-51 32-51 76 0 43 10 73 51 73" id="aS"/><path fill="#333" d="M114-163C36-179 61-72 57 0H25l-1-190h30c1 12-1 29 2 39 6-27 23-49 58-41v29" id="aT"/><g id="D"><use transform="matrix(0.05,0,0,0.05,0,0)" xlink:href="#aR"/><use transform="matrix(0.05,0,0,0.05,12.950000000000001,0)" xlink:href="#aH"/><use transform="matrix(0.05,0,0,0.05,22.950000000000003,0)" xlink:href="#aI"/><use transform="matrix(0.05,0,0,0.05,26.900000000000002,0)" xlink:href="#aI"/><use transform="matrix(0.05,0,0,0.05,30.85,0)" xlink:href="#aQ"/><use transform="matrix(0.05,0,0,0.05,40.85,0)" xlink:href="#aS"/><use transform="matrix(0.05,0,0,0.05,50.85,0)" xlink:href="#aT"/><use transform="matrix(0.05,0,0,0.05,56.800000000000004,0)" xlink:href="#aQ"/><use transform="matrix(0.05,0,0,0.05,66.80000000000001,0)" xlink:href="#aL"/><use transform="matrix(0.05,0,0,0.05,71.80000000000001,0)" xlink:href="#aH"/><use transform="matrix(0.05,0,0,0.05,81.80000000000001,0)" xlink:href="#aT"/></g><path fill="#333" d="M190 0L58-211 59 0H30v-248h39L202-35l-2-213h31V0h-41" id="aU"/><g id="E"><use transform="matrix(0.05,0,0,0.05,0,0)" xlink:href="#aU"/><use transform="matrix(0.05,0,0,0.05,12.950000000000001,0)" xlink:href="#aH"/></g><g id="F"><use transform="matrix(0.05,0,0,0.05,0,0)" xlink:href="#ac"/><use transform="matrix(0.05,0,0,0.05,5.95,0)" xlink:href="#ab"/><use transform="matrix(0.05,0,0,0.05,15.949999999999998,0)" xlink:href="#am"/><use transform="matrix(0.05,0,0,0.05,30.899999999999995,0)" xlink:href="#ay"/><use transform="matrix(0.05,0,0,0.05,40.9,0)" xlink:href="#aA"/><use transform="matrix(0.05,0,0,0.05,49.9,0)" xlink:href="#ab"/><use transform="matrix(0.05,0,0,0.05,59.900000000000006,0)" xlink:href="#ao"/></g><path d="M101-234c-31-9-42 10-38 44h38v23H63V0H32v-167H5v-23h27c-7-52 17-82 69-68v24" id="aV"/><g id="G"><use transform="matrix(0.05,0,0,0.05,0,0)" xlink:href="#aV"/><use transform="matrix(0.05,0,0,0.05,5,0)" xlink:href="#ac"/><use transform="matrix(0.05,0,0,0.05,10.95,0)" xlink:href="#ay"/><use transform="matrix(0.05,0,0,0.05,20.95,0)" xlink:href="#am"/></g><g id="H"><use transform="matrix(0.05,0,0,0.05,0,0)" xlink:href="#af"/><use transform="matrix(0.05,0,0,0.05,9,0)" xlink:href="#as"/><use transform="matrix(0.05,0,0,0.05,19,0)" xlink:href="#aa"/><use transform="matrix(0.05,0,0,0.05,28,0)" xlink:href="#ah"/><use transform="matrix(0.05,0,0,0.05,33,0)" xlink:href="#ay"/><use transform="matrix(0.05,0,0,0.05,43,0)" xlink:href="#am"/></g><path fill="#333" d="M30-248c87 1 191-15 191 75 0 78-77 80-158 76V0H30v-248zm33 125c57 0 124 11 124-50 0-59-68-47-124-48v98" id="aW"/><path fill="#333" d="M85-194c31 0 48 13 60 33l-1-100h32l1 261h-30c-2-10 0-23-3-31C134-8 116 4 85 4 32 4 16-35 15-94c0-66 23-100 70-100zm9 24c-40 0-46 34-46 75 0 40 6 74 45 74 42 0 51-32 51-76 0-42-9-74-50-73" id="aX"/><g id="I"><use transform="matrix(0.05,0,0,0.05,0,0)" xlink:href="#aW"/><use transform="matrix(0.05,0,0,0.05,12,0)" xlink:href="#aT"/><use transform="matrix(0.05,0,0,0.05,17.95,0)" xlink:href="#aH"/><use transform="matrix(0.05,0,0,0.05,27.950000000000003,0)" xlink:href="#aF"/><use transform="matrix(0.05,0,0,0.05,36.95,0)" xlink:href="#aE"/><use transform="matrix(0.05,0,0,0.05,40.900000000000006,0)" xlink:href="#aX"/><use transform="matrix(0.05,0,0,0.05,50.900000000000006,0)" xlink:href="#aC"/></g><path fill="#333" d="M160-131c35 5 61 23 61 61C221 17 115-2 30 0v-248c76 3 177-17 177 60 0 33-19 50-47 57zm-97-11c50-1 110 9 110-42 0-47-63-36-110-37v79zm0 115c55-2 124 14 124-45 0-56-70-42-124-44v89" id="aY"/><path fill="#333" d="M210-169c-67 3-38 105-44 169h-31v-121c0-29-5-50-35-48C34-165 62-65 56 0H25l-1-190h30c1 10-1 24 2 32 10-44 99-50 107 0 11-21 27-35 58-36 85-2 47 119 55 194h-31v-121c0-29-5-49-35-48" id="aZ"/><g id="J"><use transform="matrix(0.05,0,0,0.05,0,0)" xlink:href="#aY"/><use transform="matrix(0.05,0,0,0.05,12,0)" xlink:href="#aC"/><use transform="matrix(0.05,0,0,0.05,22,0)" xlink:href="#aD"/><use transform="matrix(0.05,0,0,0.05,31,0)" xlink:href="#aH"/><use transform="matrix(0.05,0,0,0.05,41,0)" xlink:href="#aZ"/><use transform="matrix(0.05,0,0,0.05,55.95,0)" xlink:href="#aC"/></g><g id="K"><use transform="matrix(0.05,0,0,0.05,0,0)" xlink:href="#aL"/><use transform="matrix(0.05,0,0,0.05,5,0)" xlink:href="#aE"/><use transform="matrix(0.05,0,0,0.05,8.95,0)" xlink:href="#aD"/><use transform="matrix(0.05,0,0,0.05,17.95,0)" xlink:href="#aK"/><use transform="matrix(0.05,0,0,0.05,26.950000000000003,0)" xlink:href="#aC"/><use transform="matrix(0.05,0,0,0.05,36.95,0)" xlink:href="#aL"/></g><path fill="#333" d="M206 0h-36l-40-164L89 0H53L-1-190h32L70-26l43-164h34l41 164 42-164h31" id="ba"/><g id="L"><use transform="matrix(0.05,0,0,0.05,0,0)" xlink:href="#aH"/><use transform="matrix(0.05,0,0,0.05,10,0)" xlink:href="#ba"/><use transform="matrix(0.05,0,0,0.05,22.950000000000003,0)" xlink:href="#aP"/><use transform="matrix(0.05,0,0,0.05,32.95,0)" xlink:href="#aC"/><use transform="matrix(0.05,0,0,0.05,42.95,0)" xlink:href="#aT"/></g><path fill="#333" d="M137-103V0h-34v-103L8-248h37l75 118 75-118h37" id="bb"/><g id="M"><use transform="matrix(0.05,0,0,0.05,0,0)" xlink:href="#bb"/><use transform="matrix(0.05,0,0,0.05,10.35,0)" xlink:href="#aC"/><use transform="matrix(0.05,0,0,0.05,20.35,0)" xlink:href="#aG"/></g><g id="N"><use transform="matrix(0.05,0,0,0.05,0,0)" xlink:href="#aJ"/><use transform="matrix(0.05,0,0,0.05,10.3,0)" xlink:href="#aE"/><use transform="matrix(0.05,0,0,0.05,14.25,0)" xlink:href="#aD"/><use transform="matrix(0.05,0,0,0.05,23.25,0)" xlink:href="#aK"/><use transform="matrix(0.05,0,0,0.05,32.25,0)" xlink:href="#aC"/><use transform="matrix(0.05,0,0,0.05,42.25,0)" xlink:href="#aL"/></g><path fill="#333" d="M140-251c81 0 123 46 123 126C263-46 219 4 140 4 59 4 17-45 17-125s42-126 123-126zm0 227c63 0 89-41 89-101s-29-99-89-99c-61 0-89 39-89 99S79-25 140-24" id="bc"/><path fill="#333" d="M103-251c84 0 111 97 45 133-19 10-37 24-39 52H78c0-63 77-55 77-114 0-30-21-42-52-43-32 0-53 17-56 46l-32-2c7-45 34-72 88-72zM77 0v-35h34V0H77" id="bd"/><g id="O"><use transform="matrix(0.05,0,0,0.05,0,0)" xlink:href="#bc"/><use transform="matrix(0.05,0,0,0.05,14,0)" xlink:href="#ba"/><use transform="matrix(0.05,0,0,0.05,26.950000000000003,0)" xlink:href="#aP"/><use transform="matrix(0.05,0,0,0.05,36.95,0)" xlink:href="#aC"/><use transform="matrix(0.05,0,0,0.05,46.95,0)" xlink:href="#aT"/><use transform="matrix(0.05,0,0,0.05,52.900000000000006,0)" xlink:href="#bd"/></g></defs></g></svg>